<mxfile host="app.diagrams.net" modified="2023-05-10T13:24:44.694Z" agent="Mozilla/5.0 (X11; Linux x86_64; rv:109.0) Gecko/20100101 Firefox/112.0" etag="cJPLYyy2y-yPHz0AHsNW" version="21.2.9" type="device">
  <diagram name="Page-1" id="Ur2eEj0EaV-BFbfT68lb">
    <mxGraphModel dx="1464" dy="1120" grid="1" gridSize="10" guides="1" tooltips="1" connect="1" arrows="1" fold="1" page="1" pageScale="1" pageWidth="827" pageHeight="1169" math="0" shadow="0">
      <root>
        <mxCell id="0" />
        <mxCell id="1" parent="0" />
        <mxCell id="SzqjqBvHpFRp_Qnmynha-5" style="edgeStyle=orthogonalEdgeStyle;rounded=0;orthogonalLoop=1;jettySize=auto;html=1;entryX=0.5;entryY=1;entryDx=0;entryDy=0;exitX=0.351;exitY=0.012;exitDx=0;exitDy=0;exitPerimeter=0;" edge="1" parent="1" source="SzqjqBvHpFRp_Qnmynha-1" target="SzqjqBvHpFRp_Qnmynha-2">
          <mxGeometry relative="1" as="geometry" />
        </mxCell>
        <mxCell id="SzqjqBvHpFRp_Qnmynha-6" style="edgeStyle=orthogonalEdgeStyle;rounded=0;orthogonalLoop=1;jettySize=auto;html=1;" edge="1" parent="1" source="SzqjqBvHpFRp_Qnmynha-1" target="SzqjqBvHpFRp_Qnmynha-3">
          <mxGeometry relative="1" as="geometry" />
        </mxCell>
        <mxCell id="SzqjqBvHpFRp_Qnmynha-7" style="edgeStyle=orthogonalEdgeStyle;rounded=0;orthogonalLoop=1;jettySize=auto;html=1;exitX=0.643;exitY=-0.001;exitDx=0;exitDy=0;exitPerimeter=0;" edge="1" parent="1" source="SzqjqBvHpFRp_Qnmynha-1" target="SzqjqBvHpFRp_Qnmynha-4">
          <mxGeometry relative="1" as="geometry" />
        </mxCell>
        <mxCell id="SzqjqBvHpFRp_Qnmynha-25" style="edgeStyle=orthogonalEdgeStyle;rounded=0;orthogonalLoop=1;jettySize=auto;html=1;exitX=0;exitY=0.5;exitDx=0;exitDy=0;" edge="1" parent="1" source="SzqjqBvHpFRp_Qnmynha-13" target="SzqjqBvHpFRp_Qnmynha-1">
          <mxGeometry relative="1" as="geometry">
            <Array as="points">
              <mxPoint x="410" y="530" />
            </Array>
          </mxGeometry>
        </mxCell>
        <mxCell id="SzqjqBvHpFRp_Qnmynha-1" value="Prometheus" style="shape=cylinder3;whiteSpace=wrap;html=1;boundedLbl=1;backgroundOutline=1;size=15;" vertex="1" parent="1">
          <mxGeometry x="360" y="380" width="100" height="80" as="geometry" />
        </mxCell>
        <mxCell id="SzqjqBvHpFRp_Qnmynha-2" value="node1" style="rounded=0;whiteSpace=wrap;html=1;" vertex="1" parent="1">
          <mxGeometry x="160" y="230" width="120" height="60" as="geometry" />
        </mxCell>
        <mxCell id="SzqjqBvHpFRp_Qnmynha-3" value="node2" style="rounded=0;whiteSpace=wrap;html=1;" vertex="1" parent="1">
          <mxGeometry x="350" y="230" width="120" height="60" as="geometry" />
        </mxCell>
        <mxCell id="SzqjqBvHpFRp_Qnmynha-4" value="node3" style="rounded=0;whiteSpace=wrap;html=1;" vertex="1" parent="1">
          <mxGeometry x="540" y="230" width="120" height="60" as="geometry" />
        </mxCell>
        <mxCell id="SzqjqBvHpFRp_Qnmynha-8" value="2" style="ellipse;whiteSpace=wrap;html=1;aspect=fixed;fillColor=#fff2cc;strokeColor=#d6b656;" vertex="1" parent="1">
          <mxGeometry x="80" y="613" width="30" height="30" as="geometry" />
        </mxCell>
        <mxCell id="SzqjqBvHpFRp_Qnmynha-9" value="1" style="ellipse;whiteSpace=wrap;html=1;aspect=fixed;fillColor=#fff2cc;strokeColor=#d6b656;" vertex="1" parent="1">
          <mxGeometry x="80" y="565" width="30" height="30" as="geometry" />
        </mxCell>
        <mxCell id="SzqjqBvHpFRp_Qnmynha-10" value="&lt;div align=&quot;left&quot;&gt;Pull CPU usage from node-exporter.&lt;/div&gt;" style="text;html=1;strokeColor=none;fillColor=none;align=left;verticalAlign=middle;whiteSpace=wrap;rounded=0;" vertex="1" parent="1">
          <mxGeometry x="120" y="565" width="230" height="30" as="geometry" />
        </mxCell>
        <mxCell id="SzqjqBvHpFRp_Qnmynha-11" value="1" style="ellipse;whiteSpace=wrap;html=1;aspect=fixed;fillColor=#fff2cc;strokeColor=#d6b656;" vertex="1" parent="1">
          <mxGeometry x="360" y="340" width="30" height="30" as="geometry" />
        </mxCell>
        <mxCell id="SzqjqBvHpFRp_Qnmynha-12" value="&lt;div align=&quot;left&quot;&gt;Pull targets per node from target-exporter.&lt;/div&gt;" style="text;html=1;strokeColor=none;fillColor=none;align=left;verticalAlign=middle;whiteSpace=wrap;rounded=0;" vertex="1" parent="1">
          <mxGeometry x="120" y="613" width="230" height="30" as="geometry" />
        </mxCell>
        <mxCell id="SzqjqBvHpFRp_Qnmynha-14" style="edgeStyle=orthogonalEdgeStyle;rounded=0;orthogonalLoop=1;jettySize=auto;html=1;exitX=1;exitY=0.5;exitDx=0;exitDy=0;exitPerimeter=0;" edge="1" parent="1" source="SzqjqBvHpFRp_Qnmynha-1" target="SzqjqBvHpFRp_Qnmynha-13">
          <mxGeometry relative="1" as="geometry" />
        </mxCell>
        <mxCell id="SzqjqBvHpFRp_Qnmynha-13" value="target-exporter" style="rounded=0;whiteSpace=wrap;html=1;" vertex="1" parent="1">
          <mxGeometry x="570" y="500" width="120" height="60" as="geometry" />
        </mxCell>
        <mxCell id="SzqjqBvHpFRp_Qnmynha-15" value="2" style="ellipse;whiteSpace=wrap;html=1;aspect=fixed;fillColor=#fff2cc;strokeColor=#d6b656;" vertex="1" parent="1">
          <mxGeometry x="480" y="380" width="30" height="30" as="geometry" />
        </mxCell>
        <mxCell id="SzqjqBvHpFRp_Qnmynha-16" value="3" style="ellipse;whiteSpace=wrap;html=1;aspect=fixed;fillColor=#fff2cc;strokeColor=#d6b656;" vertex="1" parent="1">
          <mxGeometry x="80" y="660" width="30" height="30" as="geometry" />
        </mxCell>
        <mxCell id="SzqjqBvHpFRp_Qnmynha-17" value="Compute cpu_diff (| actual - target |)." style="text;html=1;strokeColor=none;fillColor=none;align=left;verticalAlign=middle;whiteSpace=wrap;rounded=0;" vertex="1" parent="1">
          <mxGeometry x="120" y="660" width="230" height="30" as="geometry" />
        </mxCell>
        <mxCell id="SzqjqBvHpFRp_Qnmynha-18" style="edgeStyle=orthogonalEdgeStyle;rounded=0;orthogonalLoop=1;jettySize=auto;html=1;entryX=1;entryY=0.75;entryDx=0;entryDy=0;" edge="1" parent="1" source="SzqjqBvHpFRp_Qnmynha-13" target="SzqjqBvHpFRp_Qnmynha-13">
          <mxGeometry relative="1" as="geometry">
            <Array as="points">
              <mxPoint x="670" y="480" />
              <mxPoint x="710" y="480" />
              <mxPoint x="710" y="545" />
            </Array>
          </mxGeometry>
        </mxCell>
        <mxCell id="SzqjqBvHpFRp_Qnmynha-19" value="4" style="ellipse;whiteSpace=wrap;html=1;aspect=fixed;fillColor=#fff2cc;strokeColor=#d6b656;" vertex="1" parent="1">
          <mxGeometry x="520" y="540" width="30" height="30" as="geometry" />
        </mxCell>
        <mxCell id="SzqjqBvHpFRp_Qnmynha-21" style="edgeStyle=orthogonalEdgeStyle;rounded=0;orthogonalLoop=1;jettySize=auto;html=1;exitX=0;exitY=1;exitDx=0;exitDy=-15;exitPerimeter=0;" edge="1" parent="1" source="SzqjqBvHpFRp_Qnmynha-1">
          <mxGeometry relative="1" as="geometry">
            <mxPoint x="360" y="410" as="targetPoint" />
            <Array as="points">
              <mxPoint x="360" y="440" />
              <mxPoint x="320" y="440" />
              <mxPoint x="320" y="410" />
            </Array>
          </mxGeometry>
        </mxCell>
        <mxCell id="SzqjqBvHpFRp_Qnmynha-22" value="3" style="ellipse;whiteSpace=wrap;html=1;aspect=fixed;fillColor=#fff2cc;strokeColor=#d6b656;" vertex="1" parent="1">
          <mxGeometry x="280" y="430" width="30" height="30" as="geometry" />
        </mxCell>
        <mxCell id="SzqjqBvHpFRp_Qnmynha-23" value="4" style="ellipse;whiteSpace=wrap;html=1;aspect=fixed;fillColor=#fff2cc;strokeColor=#d6b656;" vertex="1" parent="1">
          <mxGeometry x="80" y="710" width="30" height="30" as="geometry" />
        </mxCell>
        <mxCell id="SzqjqBvHpFRp_Qnmynha-24" value="Pull cpu_diff and pick a one where cpu_diff &amp;gt; 0 and update exporter schedulable metric." style="text;html=1;strokeColor=none;fillColor=none;align=left;verticalAlign=middle;whiteSpace=wrap;rounded=0;" vertex="1" parent="1">
          <mxGeometry x="120" y="710" width="500" height="30" as="geometry" />
        </mxCell>
        <mxCell id="SzqjqBvHpFRp_Qnmynha-26" value="5" style="ellipse;whiteSpace=wrap;html=1;aspect=fixed;fillColor=#fff2cc;strokeColor=#d6b656;" vertex="1" parent="1">
          <mxGeometry x="80" y="760" width="30" height="30" as="geometry" />
        </mxCell>
        <mxCell id="SzqjqBvHpFRp_Qnmynha-27" value="Pull schedulable node metric (0 means &quot;schedule&quot;, 1 means &quot;don&#39;t schedule)." style="text;html=1;strokeColor=none;fillColor=none;align=left;verticalAlign=middle;whiteSpace=wrap;rounded=0;" vertex="1" parent="1">
          <mxGeometry x="120" y="760" width="430" height="30" as="geometry" />
        </mxCell>
        <mxCell id="SzqjqBvHpFRp_Qnmynha-28" style="edgeStyle=orthogonalEdgeStyle;rounded=0;orthogonalLoop=1;jettySize=auto;html=1;exitX=-0.003;exitY=0.144;exitDx=0;exitDy=0;exitPerimeter=0;entryX=-0.003;entryY=0.144;entryDx=0;entryDy=0;entryPerimeter=0;" edge="1" parent="1" target="SzqjqBvHpFRp_Qnmynha-13">
          <mxGeometry relative="1" as="geometry">
            <mxPoint x="430" y="460" as="sourcePoint" />
            <mxPoint x="590" y="530" as="targetPoint" />
            <Array as="points">
              <mxPoint x="430" y="509" />
            </Array>
          </mxGeometry>
        </mxCell>
        <mxCell id="SzqjqBvHpFRp_Qnmynha-29" value="5" style="ellipse;whiteSpace=wrap;html=1;aspect=fixed;fillColor=#fff2cc;strokeColor=#d6b656;" vertex="1" parent="1">
          <mxGeometry x="460" y="470" width="30" height="30" as="geometry" />
        </mxCell>
      </root>
    </mxGraphModel>
  </diagram>
</mxfile>
